<?xml version="1.0" encoding="utf-8"?>
<!-- Generator: Adobe Illustrator 18.1.1, SVG Export Plug-In . SVG Version: 6.00 Build 0)  -->
<svg version="1.1" id="Layer_1" xmlns="http://www.w3.org/2000/svg" xmlns:xlink="http://www.w3.org/1999/xlink" x="0px" y="0px"
	 viewBox="0 0 282.5 222" enable-background="new 0 0 282.5 222" xml:space="preserve">
<path fill="#FFFFFF" d="M281.4,201.9c0,9.4-7.7,17.2-17.2,17.2H17.6c-9.4,0-17.2-7.7-17.2-17.2V18.6c0-9.4,7.7-17.2,17.2-17.2h246.7
	c9.4,0,17.2,7.7,17.2,17.2V201.9z"/>
<path fill="#D41F3C" d="M252.9,115.1c0.1-0.2,0.5-0.6,0.6-0.7c0.2,0,0.8-0.1,1.2-0.6c0.2-0.2,0.3-0.6,0.2-1.1l-0.1-0.6l-0.7-0.1
	c-0.1,0-0.2-0.2-0.3-0.5l-0.1-0.2l-0.1-0.1c-0.5-0.5-1.2-0.8-1.9-1c-0.9-0.4-1.3-0.6-1.4-1l-0.2-0.8l-0.8,0
	c-27.5-0.9-45.3-12.2-62.4-23.1l-0.2-0.1c-7.6-5.4-14.7-11.2-21.4-17.3c-2-1.6-3.9-3.4-5.5-5.5c-1.4-1.7-3-3.3-4.5-4.8
	c-2.9-2.9-5.7-5.6-7.6-9.3l-0.1-0.2c-0.5-0.6-1-1.1-1.4-1.7c-2.2-2.5-4.2-4.9-5-8.5c-0.2-2-1.6-3-2.7-3.7c-0.6-0.4-1.2-0.8-1.5-1.3
	l-0.3-0.5h-0.5c-0.3,0-0.5-0.1-0.8-0.2c-0.4-0.2-0.9-0.4-1.6-0.4c-0.3,0-0.6,0-0.9,0.1l-0.2,0l-0.2,0.1c-5,3.4-9.3,7.4-13.4,11.4
	c-3,2.9-6.2,5.9-9.6,8.5l-0.4,0.3l0,0.5c0,0.3,0,0.4,0,0.4c0,0-0.2,0.1-0.4,0l-0.7-0.1l-0.3,0.6c-1.3,2.4-3.2,4.1-5.3,5.9
	c-0.7,0.6-1.5,1.3-2.2,2l-0.2,0.2l-0.1,0.3c-0.1,0.6-0.5,0.9-0.9,1.4c-0.3,0.4-0.7,0.8-1,1.4l-0.7,1.5h1.6c0.3,0,0.4,0.1,0.5,0.4
	l0.1,0.2l0.2,0.2c1.2,1.1,2.7,2,4.4,2.7l0.5,0.2l0.4-0.3c3.9-2.3,9.5-7.9,14.8-13.3c2.4-2.4,4.7-4.8,6.8-6.7c0.4-0.4,1-1,1.7-1.7
	c1.3-1.3,4.2-4.4,5.2-4.6c0.6,0.3,1.7,2.6,2.2,3.6c0.4,0.9,0.8,1.7,1.2,2.1c0.9,1.2,1.7,2,2.4,2.7c0.9,0.9,1.5,1.5,2,2.5v0.7
	l0.3,0.3c15.8,16.5,29.6,29.7,46,40.4c13.8,9,35.5,21.1,63.7,21.1c0.4,0,0.7,0,1.1,0l4.4-0.1L252.9,115.1z"/>
<path fill="#D41F3C" d="M115.3,91.9l0.6-0.3l-0.1-0.7c-0.1-0.9-0.8-1.4-1.2-1.7c-0.3-0.2-0.4-0.3-0.4-0.4l-0.1-0.5l-0.4-0.2
	c-2.4-1.5-5-2.8-7.6-4.1c-0.9-0.7-1.8-1.4-2.8-2c-0.9-0.6-1.9-1.3-2.7-2c-2.1-1.7-4.1-3.7-5.8-5.8c-0.1-0.4-0.3-0.7-0.5-0.8
	c0,0,0,0,0,0l-0.1-0.3L94,72.9c-2.2-1.7-3.6-4.3-4.8-6.8L89,65.9c-1.8-2-3.1-4.6-3.9-7.7l-0.1-0.3l-0.2-0.2
	c-0.3-0.3-0.3-1.7-0.2-2.3l0.1-1l-0.6-0.1c0-0.1,0-0.1,0-0.2c-0.1-0.5-0.1-1.4-0.9-1.8c-0.4-0.3-0.8-0.6-1.3-1
	C80.5,50.3,79,49,76,49.2l-0.3,0l-0.2,0.2c-5.3,4.1-10.1,8.8-14.8,13.3c-2.6,2.5-5.4,5.1-8.1,7.6l-0.2,0.2l-0.1,0.3
	c-0.1,0.3-0.3,0.5-0.7,0.8c-0.4,0.4-1,0.8-1.3,1.5c-1,1-1.9,2.1-2.8,3.2c-1.7,1.9-3.4,3.9-5.4,5.6c-0.3,0.1-0.6,0.2-0.8,0.5
	c-0.1,0.1-0.2,0.3-0.2,0.6c-1.3,1.7-2.9,3.3-4.4,4.8l-0.6,0.6l-0.1,0.3c-0.1,0.2-0.2,0.4-0.6,0.7c-0.6,0.4-1.5,1.1-1.4,2.7l0.1,1.1
	l1.1-0.1c0.5-0.1,0.9,0,0.9,0.1c0,0,0,0,0,0.1l0.1,0.7l0.4,0.1c0,0.2,0,0.4,0,0.5l-0.1,1.1h1.6l0.3,0c0.3-0.1,0.5-0.1,0.7-0.1
	c0.3,0,0.5,0.1,0.9,0.4c0.4,0.3,0.9,0.7,1.6,0.8l0.5,0.1l0.4-0.3c4.7-4.5,9.1-9.3,13.5-13.9c6.5-6.9,13.2-14.1,20.6-20.4
	c0.5,1.2,1.2,2.3,1.7,3.4c0.4,0.8,0.9,1.7,1.3,2.5c0.3,0.7,0.7,1.2,1.1,1.6c0.5,0.5,0.8,1,0.9,1.7l0,0.3l0.2,0.2
	c1.2,1.3,2.4,2.6,3.6,3.9c7.4,8.2,15,16.7,28,19.8l2.2,0.5l-1.1-2C113.7,93.2,113.7,92.8,115.3,91.9z"/>
<path fill="#D6E0F2" d="M281.4,17.8c0-9-7.4-16.3-16.5-16.3h-248C7.8,1.5,0.4,8.8,0.4,17.8v71.9c1.1,0.2,2.3,0.3,3.8,0.3
	c2.5,0,5.1,0,7.6,0c6.7,0,12.2,0,16.8-3.1c9.6-6.4,14.6-19.1,22.9-27c1.8-1.7,4.3-2.5,6.1-4.1c1.8-1.6,2.6-4.3,4.6-6.1
	c4.1-3.9,14.4-11.9,17.8-8.7c1.9,1.5,3.6,3.2,5.1,5.1c2.3,2.9,4.6,5.9,7.6,8.2c6.6-5.8,14.7-10.1,20.4-16.8c2.2-2.6,4.5-5,7.1-7.1
	c4.9-4.5,7.3-11.4,16.8-11.2c8.6,14.1,19.7,25.8,29.6,38.7c2.1,1.7,4,3.5,5.6,5.6c9.9,6,18,14,28.5,19.4c1.6,1.1,4,1.4,5.1,3.1
	c16.9,6.1,31.7,15.3,53.5,15.8c2.7,0,5.4,0,8.2,0c5.6-0.2,13.7-0.4,13.7-0.7V17.8z"/>
<g>
	<g>
		<path fill="#1C3664" d="M64.8,205.1H62l-3.8-11.3l-3.8,11.3h-2.8l-5-16.1h3.4l3.1,11.3L57,189h2.5l3.7,11.3l3.1-11.3h3.5
			L64.8,205.1z"/>
		<path fill="#1C3664" d="M73.5,185.8v-3.4h3.4v3.4H73.5z M73.6,205.1V189h3.2v16.1H73.6z"/>
		<path fill="#1C3664" d="M92.8,205.1v-9.8c0-2.5-1.4-3.6-3.2-3.6c-1.8,0-3.3,1.1-3.3,3.6v9.8h-3.2V189h3.2v1.6
			c1.1-1.2,2.7-1.8,4.3-1.8c1.7,0,3,0.5,4,1.5c1.2,1.2,1.6,2.7,1.6,4.5v10.3H92.8z"/>
		<path fill="#1C3664" d="M106.8,205.1c-3,0-4.4-2.2-4.4-4.5v-8.9h-1.8v-2.5h1.8v-4.9h3.2v4.9h3.1v2.5h-3.1v8.7
			c0,1.2,0.6,1.9,1.8,1.9h1.3v2.8H106.8z"/>
		<path fill="#1C3664" d="M116.1,198c0,2.8,1.5,4.5,4.1,4.5c1.8,0,2.8-0.5,3.9-1.7l2.1,1.9c-1.7,1.7-3.2,2.5-6,2.5
			c-4,0-7.2-2.1-7.2-8.3c0-5.2,2.7-8.2,6.8-8.2c4.3,0,6.8,3.2,6.8,7.8v1.4H116.1z M122.9,193.6c-0.5-1.2-1.7-2-3.2-2
			c-1.5,0-2.7,0.8-3.2,2c-0.3,0.7-0.4,1.2-0.4,2.2h7.2C123.3,194.8,123.2,194.3,122.9,193.6z"/>
		<path fill="#1C3664" d="M140.6,192.8c-0.7-0.7-1.3-1.1-2.4-1.1c-1.7,0-3.2,1.4-3.2,3.6v9.8h-3.2V189h3.2v1.7
			c0.8-1.1,2.5-1.9,4.3-1.9c1.6,0,2.7,0.4,3.8,1.5L140.6,192.8z"/>
		<path fill="#1C3664" d="M151.6,205.3c-2.6,0-4.9-0.4-6.8-2.3l2.1-2.1c1.3,1.3,3.1,1.7,4.6,1.7c2,0,3.5-0.7,3.5-2.2
			c0-1.1-0.6-1.8-2.2-1.9l-2.6-0.2c-3-0.3-4.8-1.6-4.8-4.4c0-3.1,2.7-4.9,6.1-4.9c2.4,0,4.5,0.5,6,1.8l-2,2.1c-1-0.9-2.4-1.2-4-1.2
			c-1.9,0-2.9,0.9-2.9,2.1c0,1,0.5,1.7,2.2,1.8l2.5,0.2c3,0.3,4.8,1.7,4.8,4.5C158.3,203.6,155.4,205.3,151.6,205.3z"/>
		<path fill="#1C3664" d="M174.6,203.9c-0.9,0.9-2.3,1.4-3.9,1.4c-1.7,0-3.1-0.4-4.2-1.8v8.2h-3.2V189h3.2v1.7
			c1.2-1.5,2.5-1.9,4.3-1.9c1.6,0,3.1,0.5,3.9,1.4c1.6,1.6,1.8,4.4,1.8,6.8C176.4,199.5,176.2,202.3,174.6,203.9z M169.8,191.7
			c-2.9,0-3.4,2.5-3.4,5.3c0,2.9,0.4,5.4,3.4,5.4c2.9,0,3.3-2.5,3.3-5.4C173.1,194.2,172.7,191.7,169.8,191.7z"/>
		<path fill="#1C3664" d="M192.5,203.4c-1,1.1-2.6,1.9-4.8,1.9c-2.2,0-3.8-0.8-4.8-1.9c-1.5-1.6-1.9-3.6-1.9-6.4
			c0-2.7,0.4-4.7,1.9-6.3c1-1.1,2.6-1.9,4.8-1.9c2.2,0,3.8,0.8,4.8,1.9c1.5,1.6,1.9,3.6,1.9,6.3C194.4,199.8,194,201.8,192.5,203.4z
			 M190,192.6c-0.6-0.6-1.4-0.9-2.4-0.9c-1,0-1.7,0.3-2.4,0.9c-1,1-1.1,2.7-1.1,4.4c0,1.7,0.1,3.4,1.1,4.4c0.6,0.6,1.4,1,2.4,1
			c1,0,1.8-0.4,2.4-1c1-1,1.1-2.7,1.1-4.4C191.2,195.3,191,193.6,190,192.6z"/>
		<path fill="#1C3664" d="M208.6,192.8c-0.7-0.7-1.3-1.1-2.4-1.1c-1.7,0-3.2,1.4-3.2,3.6v9.8h-3.2V189h3.2v1.7
			c0.8-1.1,2.5-1.9,4.3-1.9c1.6,0,2.7,0.4,3.8,1.5L208.6,192.8z"/>
		<path fill="#1C3664" d="M219.4,205.1c-3,0-4.4-2.2-4.4-4.5v-8.9h-1.8v-2.5h1.8v-4.9h3.2v4.9h3.1v2.5h-3.1v8.7
			c0,1.2,0.6,1.9,1.8,1.9h1.3v2.8H219.4z"/>
	</g>
</g>
<g>
	<g>
		<path fill="#1C3664" d="M20.8,159.9c-4.9,0-9.1-1.7-12.5-5.1c-2-2-3.3-4.4-3.8-7c-0.5-2.6-0.8-6.4-0.8-11.5
			c0-5.1,0.3-8.9,0.8-11.5c0.5-2.7,1.8-4.9,3.8-7c3.4-3.4,7.5-5.1,12.5-5.1c8.9,0,15.5,5.2,17,14.6h-9.2c-1-4-3.4-6.6-7.8-6.6
			c-2.5,0-4.4,0.8-5.8,2.4c-1.9,2-2.3,4.1-2.3,13.1c0,9,0.4,11,2.3,13.1c1.4,1.6,3.3,2.4,5.8,2.4c4.4,0,6.8-2.6,7.8-6.6h9.2
			C36.3,154.7,29.7,159.9,20.8,159.9z"/>
		<path fill="#1C3664" d="M66.1,159.5v-20.7c0-4.5-2.9-6-5.5-6c-2.7,0-5.5,1.6-5.5,6v20.7h-8.5v-46.3h8.5v15.5
			c2.3-2.3,5.1-3.5,8.1-3.5c7.4,0,11.3,5.2,11.3,12.3v21.9H66.1z"/>
		<path fill="#1C3664" d="M102.6,159.5v-2.9c-2.3,2.3-4.4,3.2-8.3,3.2c-3.8,0-6.6-1-8.6-3c-1.8-1.9-2.8-4.6-2.8-7.6
			c0-5.4,3.7-9.8,11.6-9.8h8v-1.7c0-3.7-1.8-5.3-6.3-5.3c-3.2,0-4.7,0.8-6.5,2.8l-5.4-5.3c3.3-3.6,6.6-4.7,12.2-4.7
			c9.5,0,14.4,4,14.4,12v22.3H102.6z M102.4,145.2h-6.7c-3.1,0-4.7,1.4-4.7,3.8c0,2.3,1.6,3.9,4.9,3.9c2.3,0,3.8-0.2,5.3-1.6
			c0.9-0.8,1.2-2.2,1.2-4.3V145.2z"/>
		<path fill="#1C3664" d="M131.1,159.5c-7,0-9.9-4.9-9.9-9.7v-36.6h8.5v36.1c0,2,0.8,3.1,3,3.1h3.2v7.2H131.1z"/>
		<path fill="#1C3664" d="M149.3,145.2c0,4.4,2.7,7.5,7.4,7.5c3.7,0,5.5-1,7.7-3.2l5.1,5c-3.4,3.4-6.8,5.3-12.9,5.3
			c-8,0-15.7-3.6-15.7-17.4c0-11,6-17.3,14.8-17.3c9.4,0,14.8,6.9,14.8,16.2v3.8H149.3z M161.4,135.8c-0.9-2-2.8-3.5-5.7-3.5
			c-2.9,0-4.7,1.5-5.7,3.5c-0.5,1.2-0.7,2.1-0.8,3.6h12.9C162.1,137.9,161.9,137,161.4,135.8z"/>
		<path fill="#1C3664" d="M190.5,159.5c-6.9,0-9.8-4.9-9.8-9.7V133h-3.6v-6.4h3.6v-10h8.5v10h6v6.4h-6v16.3c0,1.9,0.9,3.1,2.9,3.1
			h3.1v7.2H190.5z"/>
		<path fill="#1C3664" d="M204.1,159.5v-9.6h9.7v9.6H204.1z"/>
		<path fill="#1C3664" d="M244.3,159.5V139c0-4.6-2.9-6.2-5.6-6.2c-2.7,0-5.7,1.6-5.7,6.2v20.5h-8.5v-33.9h8.3v3.1
			c2.2-2.3,5.3-3.5,8.5-3.5c3.4,0,6.1,1.1,8,3c2.7,2.7,3.4,5.9,3.4,9.6v21.6H244.3z"/>
		<path fill="#1C3664" d="M273,159.5c-7,0-9.9-4.9-9.9-9.7v-36.6h8.5v36.1c0,2,0.8,3.1,3,3.1h3.2v7.2H273z"/>
	</g>
</g>
<path fill="#D41F3C" d="M279.4,169.5c-0.5-0.2-0.9-0.3-1.3-0.5c-1.3-0.5-2.8-1.2-5-1.2c-0.6,0-1.3,0.1-2,0.2l-0.4,0.1
	c-0.4,0.2-1.1,0.1-1.8,0c-0.8-0.1-1.6-0.2-2.7-0.1L266,168c-1.1,0.3-3.1,0.2-5.2,0c-1.2-0.1-2.4-0.2-3.6-0.2c-0.8,0-1.5,0-2.2,0.1
	c-0.1,0-0.2,0-0.6,0c-1,0-2.2-0.2-2.4-0.3l-0.4-0.3l-0.5,0.1c-1.8,0.2-3.8,0.3-6,0.3c-2.3,0-4.6-0.1-7.1-0.2c-2.4-0.1-5-0.2-7.5-0.2
	c-1.8,0-3.5,0.1-5,0.2l-0.2,0c-1.1,0.2-2.6,0.3-3.7,0.3c-0.9,0-1.7,0-2.6,0c-1.6,0-3.1-0.1-4.5,0l-1.2,0.1l0,0.2c-0.1,0-0.3,0-0.4,0
	c-0.6,0-1.1,0-1.5,0c-3.9,0.2-8.7,0.3-13.7,0.3c-5,0-9.9-0.1-13.8-0.3l-1.4,0c-1.2-0.1-2.6,0-3.9,0c-0.8,0-1.5,0-2.3,0
	c-0.9,0-2.2,0-3-0.2l-0.4,0c-12.7-0.1-23.9-0.1-34.7,0c-6.1,0-12,0.1-18,0.1c-12.5,0-22.8-0.1-33.3-0.5c-0.8-0.1-1.8,0-2.8,0
	c-0.5,0-1.1,0-1.6,0c-1.2,0-1.5-0.1-1.6-0.1l-0.3-0.1l-30.7,0c-3.1,0-6.1,0-8.9-0.1c-2.6,0-5.1-0.1-7.5-0.1c-4.5,0-9.9,0.1-15.8,0.7
	l-0.4,0l-0.2,0.1c-0.2,0-0.6-0.1-0.9-0.1c-0.7-0.1-1.5-0.3-2.5-0.2h-0.7l-0.3,0.1c-0.7,0.3-1.7,0.2-3.1,0c-1.3-0.2-3-0.4-4.6-0.3
	l-0.3,0.1l-0.2,0.1c-0.3,0.1-1.5,0.3-2.1,0.4c-1.4,0.2-2.5,0.3-2.6,1.4c0,0.4,0.1,0.8,0.8,1.1l-0.2,0.7l1.5,0.1
	c0.1,0.1,0.2,0.3,0.3,0.4c0.2,0.4,0.6,1.1,1.4,1.5c0.1,0.5,0.4,1.3,1.3,1.4c2.7,0.7,5,1.1,7.8,1.2c5.1,0.1,9.6,0.2,14.4,0.4
	c8.1,0.3,16.5,0.5,29.4,0.5c5.3,0,10.5,0,15.7,0c11.5,0,22.8,0.1,33.7,0.1c10.9,0.1,22.3,0.1,33.7,0.1c13.9,0,26-0.1,38.1-0.2
	c5.9-0.1,11.9-0.1,18.4-0.1c9.8,0,19.4,0.1,28.6,0.2c9.2,0.1,18,0.2,27.1,0.2c5.9,0,11.3,0,16.5-0.1c4-0.1,8.9-0.1,10.5-2.3
	c0.7-0.5,0.9-1.5,1.1-2.6c0-0.2,0.1-0.4,0.1-0.5l1.1-1.1L279.4,169.5z"/>
</svg>
